<svg width="40" height="40" viewBox="0 0 40 40" fill="none" xmlns="http://www.w3.org/2000/svg">
<g id="Icons/Servicios/Actividades">
<path id="Vector" d="M22.532 0C22.2997 0.826803 21.8997 1.67106 21.4034 2.52608C20.5067 4.07045 19.2697 5.64939 17.9635 7.09981C16.6573 8.55032 15.2832 9.86797 14.1071 10.8677C13.9721 10.9824 13.836 11.0959 13.6989 11.208C19.9779 11.0457 24.749 10.3046 28.3538 9.33883C26.9356 6.24331 25.0381 3.0989 22.5321 0.000173566L22.532 0ZM24.7267 0.305471C26.8794 3.1629 28.5543 6.0541 29.8407 8.9071C31.6068 8.3553 33.0512 7.75338 34.2219 7.15607C36.1957 6.14901 37.4016 5.15723 38.1073 4.43714C38.155 4.38852 38.1941 4.34553 38.2369 4.30012C36.1155 4.01184 30.9923 3.08362 24.7266 0.305297L24.7267 0.305471ZM39.3134 5.4139C39.2734 5.45627 39.2331 5.499 39.1905 5.54224C38.3645 6.3851 37.0176 7.47726 34.9068 8.55422C33.693 9.17359 32.2255 9.78792 30.4598 10.3493C32.1389 14.4847 33.3169 19.9941 33.5926 24.116C33.9255 29.5203 33.2352 34.0522 32.4657 37.0557C32.9987 36.357 33.5554 35.5161 34.1012 34.5546C35.4468 32.1841 36.7745 29.1042 37.826 25.6822C39.775 19.339 40.7513 11.8244 39.3133 5.4139H39.3134ZM28.9833 10.7853C25.0793 11.8569 19.8949 12.6578 13.0298 12.786C15.6684 15.3125 18.2538 18.3571 20.6178 21.4854C18.3792 24.0967 15.9569 26.5209 13.5586 28.6559C13.2369 28.9422 12.9128 29.2258 12.5865 29.5066L11.8989 27.9869L9.98539 28.2038L10.1979 30.1564L11.4843 30.4378C10.4212 31.3187 9.37645 32.1355 8.36833 32.8803L7.94949 31.4382L6.02524 31.3721L5.9604 33.3357L7.12382 33.7764C6.62675 34.1256 6.12394 34.4662 5.61559 34.7981C5.09609 35.1367 4.59445 35.4474 4.11281 35.7324L4.13307 34.3899L2.31595 33.7402L1.67927 35.5944L2.79282 36.4742C1.64591 37.0814 0.682462 37.4877 0 37.6618L0.37161 39.1779C0.683398 39.0984 1.01876 38.9895 1.37403 38.8551L1.36161 38.8045C1.56711 38.7521 1.80129 38.6743 2.05853 38.5747C2.50239 38.3799 2.97501 38.1483 3.47171 37.8848L3.44975 39.3505L5.26687 40L5.90372 38.146L4.70108 37.1959C5.25606 36.8692 5.83599 36.5091 6.43982 36.1157C6.63645 35.9873 6.83223 35.8575 7.02715 35.7264C7.43901 35.439 7.86236 35.1331 8.29447 34.8123L8.7499 36.3805L10.6743 36.4466L10.7392 34.4829L9.3967 33.9747C10.4612 33.147 11.5705 32.2313 12.7007 31.2419L13.3874 32.7604L15.3012 32.5435L15.0885 30.5908L13.7581 30.2998C14.1434 29.9508 14.5256 29.5982 14.9046 29.2419C20.297 24.1689 25.8157 17.6344 29.0877 11.0422C29.053 10.9566 29.0188 10.8711 28.9833 10.7855V10.7853ZM29.8185 12.981C27.8065 16.733 25.1649 20.3932 22.2852 23.7571C23.1803 25.0085 24.0511 26.278 24.8969 27.5646C26.7347 30.3614 28.2921 32.982 29.4347 35.089C29.9598 36.0572 30.3852 36.8823 30.7183 37.5908C31.5122 34.8426 32.4208 30.008 32.064 24.2141C31.8509 20.7533 31.197 16.9398 29.8183 12.981H29.8185Z" fill="url(#paint0_linear_688_893)"/>
</g>
<defs>
<linearGradient id="paint0_linear_688_893" x1="-1.9184e-07" y1="20.1802" x2="40" y2="20.1802" gradientUnits="userSpaceOnUse">
<stop stop-color="#495B8C"/>
<stop offset="1" stop-color="#718CD9"/>
</linearGradient>
</defs>
</svg>
