<svg width="34" height="31" viewBox="0 0 34 31" fill="none" xmlns="http://www.w3.org/2000/svg">
<g id="Ayuda">
<path id="Vector" d="M4.41579 16.973C0.874645 13.4319 0.380585 7.1967 3.92161 3.65577C7.46275 0.114595 13.204 0.114672 16.7452 3.65577L17.1781 4.12525C20.7917 1.13292 26.5112 0.891209 29.8441 4.22396C33.3853 7.76505 33.3853 13.5062 29.8441 17.0472L29.6812 17.139C29.7762 17.7676 29.5733 18.436 29.0881 18.921C28.2908 19.7185 26.9979 19.7183 26.2005 18.9209L26.2079 18.9485C27.0054 19.7461 26.9705 21.0388 26.1731 21.8361C25.3756 22.6336 24.0827 22.6335 23.2854 21.8361L23.2928 21.8636C24.0903 22.6611 24.0554 23.954 23.258 24.7512C22.4606 25.5486 21.1676 25.5485 20.3702 24.7512L19.8092 24.1944C20.6068 24.9919 20.6066 26.2846 19.8092 27.0819L17.7832 29.108C16.9858 29.9055 15.6928 29.8706 14.8955 29.0732C14.098 28.2758 14.0983 26.983 14.8955 26.1856L14.8681 26.1929C14.0705 26.9904 12.7777 26.9556 11.9804 26.1582C11.1828 25.3607 11.183 24.0679 11.9804 23.2705L11.953 23.2779C11.1555 24.0754 9.86261 24.0404 9.06515 23.2431C8.26778 22.4456 8.26801 21.1529 9.06523 20.3555L9.03775 20.3628C8.24029 21.1602 6.94744 21.1255 6.15008 20.328C5.54745 19.7254 5.40032 18.8399 5.70853 18.099L4.41579 16.973Z" fill="#BBC9F0" fill-opacity="0.3"/>
<path id="Vector_2" d="M20.1154 7.04798L16.6226 10.5437C14.9247 12.269 12.2614 12.269 10.6185 10.6262L16.5429 4.7018M16.5265 4.71814C20.0677 1.17705 26.303 0.682943 29.8441 4.22396C33.3853 7.76505 33.3853 13.5062 29.8441 17.0472M20.1731 7.08375L29.1229 16.0335C29.9205 16.8308 29.8857 18.1237 29.0881 18.921C28.2908 19.7185 26.9978 19.7183 26.2005 18.9209M20.1799 12.9205L26.2079 18.9485C27.0054 19.7461 26.9705 21.0388 26.1731 21.8361C25.3756 22.6336 24.0827 22.6335 23.2854 21.8361L17.2574 15.808M23.2928 21.8636C24.0903 22.6611 24.0554 23.954 23.258 24.7512C22.4606 25.5486 21.1676 25.5485 20.3702 24.7512M5.23485 17.792L4.41579 16.973C0.874645 13.4319 0.380585 7.1967 3.92161 3.65576C7.46275 0.114593 13.204 0.11467 16.7452 3.65576L16.9939 3.90591M17.7832 29.108C16.9858 29.9055 15.6928 29.8706 14.8955 29.0732C14.098 28.2758 14.0983 26.983 14.8955 26.1856L16.9216 24.1596C17.7191 23.3622 19.012 23.397 19.8092 24.1944C20.6068 24.9919 20.6066 26.2846 19.8092 27.0819L17.7832 29.108ZM14.8681 26.1929C14.0705 26.9904 12.7777 26.9556 11.9804 26.1582C11.1828 25.3607 11.183 24.0679 11.9804 23.2705L14.0064 21.2446C14.804 20.4471 16.097 20.482 16.8942 21.2792C17.6917 22.0767 17.6915 23.3696 16.8942 24.167L14.8681 26.1929ZM11.953 23.2779C11.1555 24.0754 9.8626 24.0404 9.06515 23.2431C8.26778 22.4456 8.26801 21.1529 9.06523 20.3555L11.0914 18.3295C11.8888 17.5319 13.1818 17.5668 13.979 18.3643C14.7766 19.1617 14.7764 20.4545 13.979 21.2519L11.953 23.2779ZM9.03774 20.3628C8.24029 21.1602 6.94744 21.1255 6.15008 20.328C5.35265 19.5306 5.35279 18.2377 6.15015 17.4404L8.17619 15.4143C8.97379 14.6169 10.2665 14.6517 11.064 15.4492C11.8614 16.2466 11.8612 17.5395 11.0639 18.3368L9.03774 20.3628Z" stroke="url(#paint0_linear_748_690)" stroke-width="2" stroke-linecap="round"/>
</g>
<defs>
<linearGradient id="paint0_linear_748_690" x1="1.5" y1="15.2152" x2="32.5" y2="15.2152" gradientUnits="userSpaceOnUse">
<stop stop-color="#495B8C"/>
<stop offset="1" stop-color="#718CD9"/>
</linearGradient>
</defs>
</svg>
