<svg width="40" height="40" viewBox="0 0 40 40" fill="none" xmlns="http://www.w3.org/2000/svg">
<g id="Icons/Servicios/Chat">
<path id="Vector" d="M20 0C31.046 0 40 8.95355 40 19.999C40 31.0444 31.046 39.998 20 39.998C16.808 40.0024 13.6617 39.2397 10.826 37.7741L3.17402 39.908C2.7471 40.0271 2.29618 40.0306 1.86746 39.9181C1.43875 39.8056 1.04765 39.5812 0.734236 39.2678C0.420824 38.9544 0.19637 38.5633 0.083871 38.1346C-0.0286278 37.7059 -0.0251263 37.255 0.0940167 36.8281L2.23002 29.1825C0.760721 26.3445 -0.0041376 23.1947 1.68339e-05 19.999C1.68339e-05 8.95355 8.95401 0 20 0ZM20 2.99985C15.4913 2.99985 11.1673 4.79083 7.9792 7.97878C4.79108 11.1667 3.00002 15.4905 3.00002 19.999C3.00002 22.9388 3.74602 25.7647 5.14601 28.2726L5.44601 28.8125L3.22202 36.7801L11.196 34.5563L11.736 34.8562C14.0048 36.1176 16.5323 36.8426 19.1247 36.9758C21.7171 37.1089 24.3056 36.6466 26.6917 35.6244C29.0778 34.6022 31.198 33.0471 32.8899 31.0784C34.5818 29.1098 35.8003 26.7799 36.4521 24.2673C37.1039 21.7548 37.1716 19.1263 36.6501 16.5835C36.1285 14.0408 35.0316 11.6512 33.4433 9.59805C31.855 7.54491 29.8176 5.88274 27.4874 4.73901C25.1571 3.59527 22.5959 3.00035 20 2.99985ZM13.5 21.9989H22.496C22.8761 21.999 23.2419 22.1434 23.5196 22.4028C23.7973 22.6623 23.9662 23.0174 23.9921 23.3966C24.018 23.7757 23.899 24.1506 23.6591 24.4454C23.4193 24.7402 23.0765 24.9329 22.7 24.9847L22.496 24.9987H13.5C13.12 24.9986 12.7541 24.8543 12.4764 24.5948C12.1987 24.3354 12.0299 23.9802 12.004 23.6011C11.9781 23.2219 12.097 22.8471 12.3369 22.5523C12.5767 22.2575 12.9195 22.0647 13.296 22.0129L13.5 21.9989ZM13.5 14.9992H26.51C26.8899 14.9999 27.2554 15.1446 27.5327 15.4042C27.81 15.6638 27.9785 16.0189 28.0041 16.3979C28.0298 16.7769 27.9107 17.1515 27.6708 17.4461C27.431 17.7407 27.0883 17.9333 26.712 17.9851L26.51 17.9991H13.5C13.12 17.999 12.7541 17.8546 12.4764 17.5952C12.1987 17.3357 12.0299 16.9805 12.004 16.6014C11.9781 16.2223 12.097 15.8474 12.3369 15.5526C12.5767 15.2578 12.9195 15.065 13.296 15.0132L13.5 14.9992Z" fill="url(#paint0_linear_688_912)"/>
</g>
<defs>
<linearGradient id="paint0_linear_688_912" x1="-1.9184e-07" y1="20.1802" x2="40" y2="20.1802" gradientUnits="userSpaceOnUse">
<stop stop-color="#495B8C"/>
<stop offset="1" stop-color="#718CD9"/>
</linearGradient>
</defs>
</svg>
