<svg width="38" height="31" viewBox="0 0 38 31" fill="none" xmlns="http://www.w3.org/2000/svg">
<g id="Contacto" clip-path="url(#clip0_748_693)">
<g id="Group">
<path id="Vector" d="M17.6706 0.0666065C16.1819 0.230083 14.5993 0.738676 13.219 1.50157C12.4675 1.91934 11.0872 3.06368 10.5597 3.70547C10.061 4.317 9.5118 5.24336 9.25165 5.92149C9.02763 6.49063 8.81083 7.33223 8.81083 7.62891C8.81083 7.74395 8.70966 7.90137 8.50731 8.09512C7.89305 8.68848 7.90751 8.59766 7.88583 11.4979C7.86415 14.3617 7.8786 14.4647 8.3411 14.9732C8.51454 15.167 8.73856 15.3063 9.06376 15.4455C9.95985 15.8148 10.9788 15.6574 11.6075 15.052L11.8821 14.7856L12.2796 15.4637C13.1757 16.9955 14.5198 18.1398 16.1675 18.7938L16.6083 18.9693L16.9118 18.6848C17.302 18.3154 17.7212 18.0793 18.2632 17.9279C18.6751 17.8129 18.8702 17.8008 20.937 17.8008C23.5458 17.8008 23.7192 17.7766 24.2901 17.3346C24.4852 17.1772 24.7815 16.8744 24.955 16.6564C25.2802 16.2447 25.9522 15.1488 26.0317 14.8945C26.0751 14.7613 26.0895 14.7674 26.4075 15.052L26.7399 15.3486L26.6966 15.9904C26.6749 16.3416 26.6099 16.7775 26.5448 16.9592C26.2052 17.9279 25.2296 18.7635 24.0661 19.0783C23.6325 19.1994 23.3868 19.2176 21.1321 19.2479C18.704 19.2842 18.6751 19.2842 18.4366 19.4234C17.7284 19.8473 17.7501 20.7736 18.4727 21.1914L18.7401 21.3428H21.3417C24.2757 21.3428 24.4202 21.3246 25.562 20.8826C27.2024 20.2469 28.4093 19.1086 28.9585 17.6797C29.1825 17.0984 29.262 16.6383 29.262 15.9541V15.3365L29.5294 15.1004C29.6739 14.9732 29.8618 14.7432 29.9413 14.5918C30.0858 14.3314 30.0931 14.2285 30.0931 11.625C30.0931 8.57344 30.1147 8.69454 29.4932 8.09512C29.2909 7.90137 29.1897 7.74395 29.1897 7.62891C29.1897 7.01133 28.7128 5.66719 28.178 4.7711C27.6433 3.875 27.1518 3.31797 26.2268 2.54297C24.8177 1.35625 23.4085 0.678129 21.5296 0.272465C20.3155 0.0121136 18.9063 -0.066597 17.6706 0.0666065ZM20.554 2.29473C23.5964 2.82149 25.9595 4.83164 26.5593 7.39883L26.6821 7.91954L26.3641 8.22832L26.0462 8.53711L25.7788 8.04668C24.8321 6.33321 23.0472 4.92852 21.1321 4.38965C20.1132 4.10508 18.6968 4.03243 17.6417 4.21407C15.452 4.58946 13.4575 5.97598 12.3085 7.90743L11.9472 8.525L11.6364 8.22832L11.3257 7.92559L11.4124 7.53204C11.9544 4.92246 14.3247 2.85176 17.4104 2.30079C18.2559 2.14336 19.694 2.14336 20.554 2.29473Z" fill="url(#paint0_linear_748_693)"/>
<path id="Vector_2" d="M11.369 19.042C8.18205 19.8352 5.67443 21.482 4.08459 23.8434C3.109 25.2844 2.63205 26.7617 2.54533 28.5781C2.48752 29.7709 2.58146 30.0857 3.08732 30.5096C3.73049 31.0484 2.22013 31 19.0002 31C35.7803 31 34.2699 31.0484 34.9131 30.5096C35.419 30.0857 35.5129 29.7709 35.4551 28.5781C35.3901 27.2158 35.1371 26.1805 34.6024 25.0422C33.7063 23.141 32.0875 21.482 29.9918 20.3195L29.457 20.0229L29.2041 20.2893C28.243 21.2943 26.841 22.0996 25.3596 22.4871C24.3045 22.7656 23.5891 22.8262 21.132 22.8262C18.769 22.8262 18.4076 22.7959 17.7861 22.5295C17.3453 22.3418 16.8033 21.8938 16.5649 21.5244C16.3481 21.1793 16.3408 21.1793 15.6399 20.9432C14.4475 20.5557 13.1322 19.8412 12.3518 19.1691C12.1783 19.0178 12.0121 18.8906 11.9904 18.8967C11.9688 18.8967 11.6942 18.9633 11.369 19.042Z" fill="url(#paint1_linear_748_693)"/>
</g>
</g>
<defs>
<linearGradient id="paint0_linear_748_693" x1="7.87988" y1="10.5767" x2="30.0931" y2="10.5767" gradientUnits="userSpaceOnUse">
<stop stop-color="#495B8C"/>
<stop offset="1" stop-color="#718CD9"/>
</linearGradient>
<linearGradient id="paint1_linear_748_693" x1="2.53027" y1="24.8943" x2="35.4702" y2="24.8943" gradientUnits="userSpaceOnUse">
<stop stop-color="#495B8C"/>
<stop offset="1" stop-color="#718CD9"/>
</linearGradient>
<clipPath id="clip0_748_693">
<rect width="37" height="31" fill="white" transform="translate(0.5)"/>
</clipPath>
</defs>
</svg>
