<svg width="40" height="40" viewBox="0 0 40 40" fill="none" xmlns="http://www.w3.org/2000/svg">
<g id="Group">
<g id="Clip path group">
<mask id="mask0_688_921" style="mask-type:luminance" maskUnits="userSpaceOnUse" x="0" y="0" width="40" height="40">
<g id="healthiconsDoctorMaleNegative0">
<path id="Vector" d="M0 0H40V40H0V0Z" fill="white"/>
</g>
</mask>
<g mask="url(#mask0_688_921)">
<g id="Group_2">
<path id="Vector_2" fill-rule="evenodd" clip-rule="evenodd" d="M40 0H0V40H40V0ZM10.8333 30C10.8333 29.0983 11.3108 28.3083 12.0275 27.8683C12.0002 27.7646 11.9746 27.6604 11.9508 27.5558C11.8244 26.9865 11.7256 26.4114 11.655 25.8325C11.5834 25.2779 11.5403 24.7199 11.5258 24.1608C8.00833 25.5417 5 27.9483 5 30.475V35H35V30.475C35 28.055 32.2417 25.7458 28.9183 24.3417V24.365C28.9333 24.8733 28.905 25.4567 28.85 26.0175C28.8 26.5375 28.7258 27.0558 28.6367 27.5H29.1667C29.3214 27.5001 29.473 27.5432 29.6046 27.6246C29.7362 27.706 29.8425 27.8224 29.9117 27.9608L30.745 29.6275C30.8033 29.7433 30.8333 29.8708 30.8333 30V31.6667C30.8333 31.8877 30.7455 32.0996 30.5893 32.2559C30.433 32.4122 30.221 32.5 30 32.5H28.3333V30.8333H29.1667V30.1967L28.6517 29.1667H26.3483L25.8333 30.1967V30.8333H26.6667V32.5H25C24.779 32.5 24.567 32.4122 24.4107 32.2559C24.2545 32.0996 24.1667 31.8877 24.1667 31.6667V30C24.1667 29.8708 24.1967 29.7433 24.255 29.6275L25.0883 27.9608C25.1575 27.8224 25.2638 27.706 25.3954 27.6246C25.527 27.5432 25.6786 27.5001 25.8333 27.5H26.9292C26.9475 27.4283 26.9658 27.3492 26.9842 27.2617C27.0675 26.8692 27.1417 26.3717 27.1917 25.8575C27.2417 25.3425 27.265 24.8317 27.2525 24.4117C27.2494 24.2377 27.2357 24.064 27.2117 23.8917C27.1933 23.7733 27.175 23.7192 27.1717 23.7075C27.17 23.7042 27.17 23.7042 27.1717 23.7058L27.1742 23.705C26.732 23.5676 26.2847 23.4473 25.8333 23.3442C25.4142 23.2483 24.9808 23.825 24.7917 24.1858H15C14.9757 24.1394 14.9518 24.0927 14.9283 24.0458C14.7517 23.6942 14.5342 23.26 14.1667 23.3442C13.8458 23.4167 13.525 23.5 13.2042 23.5917C13.1938 23.7378 13.1894 23.8843 13.1908 24.0308C13.1942 24.4917 13.2383 25.0558 13.3092 25.6258C13.38 26.1942 13.4758 26.7475 13.5758 27.1842C13.6042 27.31 13.6325 27.4233 13.6592 27.5208C14.1356 27.5835 14.5839 27.7821 14.9504 28.0929C15.3168 28.4037 15.586 28.8135 15.7255 29.2733C15.8651 29.7331 15.8692 30.2234 15.7374 30.6855C15.6055 31.1476 15.3433 31.5619 14.9821 31.8788C14.6208 32.1957 14.176 32.4018 13.7006 32.4724C13.2253 32.543 12.7397 32.4751 12.302 32.2769C11.8643 32.0786 11.4929 31.7585 11.2325 31.3546C10.972 30.9508 10.8334 30.4805 10.8333 30ZM14.1667 30C14.1667 30.4783 13.7817 30.8458 13.3333 30.8458C12.885 30.8458 12.5 30.4792 12.5 30C12.5 29.5217 12.885 29.1542 13.3333 29.1542C13.7817 29.1542 14.1667 29.5208 14.1667 30ZM15.0033 15.82C15.0509 17.1279 15.6093 18.365 16.5588 19.2658C17.5083 20.1665 18.7731 20.6591 20.0817 20.6377C21.3903 20.6163 22.6384 20.0827 23.5579 19.1514C24.4775 18.2201 24.9952 16.9654 25 15.6567C24.6467 14.4283 25.0233 13.3267 25.0233 13.3267C25.0233 13.3267 20.8233 12.9067 15.8333 9.58333C15.1208 10.3325 15.1225 12.1675 15.1233 13.7233C15.1233 14.585 15.1242 15.3617 15.0033 15.82ZM26.3758 17.5833C27.4783 18.1542 28.195 14.3925 28.195 11.5083C28.195 5.88667 21.0783 4.61667 18.6183 4.28833C15.4275 3.86333 14.9217 6.09083 14.6933 7.09333C14.6333 7.35833 14.5925 7.53833 14.5267 7.56C10.8375 10.55 12.2725 14.3858 13.3667 16.3008C13.5204 17.8334 14.2 19.2654 15.29 20.3536C16.38 21.4418 17.8132 22.1189 19.346 22.27C20.8788 22.4212 22.4166 22.0369 23.6981 21.1825C24.9797 20.3281 25.9258 19.0563 26.3758 17.5833Z" fill="url(#paint0_linear_688_921)"/>
</g>
</g>
</g>
</g>
<defs>
<linearGradient id="paint0_linear_688_921" x1="-1.9184e-07" y1="20.1802" x2="40" y2="20.1802" gradientUnits="userSpaceOnUse">
<stop stop-color="#495B8C"/>
<stop offset="1" stop-color="#718CD9"/>
</linearGradient>
</defs>
</svg>
