<svg width="40" height="40" viewBox="0 0 40 40" fill="none" xmlns="http://www.w3.org/2000/svg">
<g id="Icons/Servicios/Herramientas">
<path id="Vector" d="M20 6.66669C21.85 6.66669 23.3333 8.15002 23.3333 10C23.3333 11.85 21.85 13.3334 20 13.3334C18.15 13.3334 16.6667 11.85 16.6667 10C16.6667 8.15002 18.1667 6.66669 20 6.66669ZM35 26.6667V23.3334C31.2667 23.3334 28.0667 21.7334 25.6667 18.8667L23.4333 16.2C23.1232 15.8241 22.7338 15.5216 22.2929 15.3141C21.852 15.1066 21.3706 14.9994 20.8833 15H19.1667C18.15 15 17.2167 15.4334 16.5833 16.2L14.35 18.8667C11.9333 21.7334 8.73333 23.3334 5 23.3334V26.6667C9.61667 26.6667 13.65 24.7167 16.6667 21.25V25L10.2 27.5834C9.08333 28.0334 8.33333 29.1667 8.33333 30.35C8.33333 32 9.66667 33.3334 11.3167 33.3334H15V32.5C15 31.395 15.439 30.3351 16.2204 29.5537C17.0018 28.7723 18.0616 28.3334 19.1667 28.3334H24.1667C24.6333 28.3334 25 28.7 25 29.1667C25 29.6334 24.6333 30 24.1667 30H19.1667C17.7833 30 16.6667 31.1167 16.6667 32.5V33.3334H28.6833C30.3333 33.3334 31.6667 32 31.6667 30.35C31.6667 29.1667 30.9167 28.0334 29.8 27.5834L23.3333 25V21.25C26.35 24.7167 30.3833 26.6667 35 26.6667Z" fill="url(#paint0_linear_688_708)"/>
</g>
<defs>
<linearGradient id="paint0_linear_688_708" x1="5" y1="20.1201" x2="35" y2="20.1201" gradientUnits="userSpaceOnUse">
<stop stop-color="#495B8C"/>
<stop offset="1" stop-color="#718CD9"/>
</linearGradient>
</defs>
</svg>
