<svg width="29" height="30" viewBox="0 0 29 30" fill="none" xmlns="http://www.w3.org/2000/svg">
<g clip-path="url(#clip0_289_868)">
<path fill-rule="evenodd" clip-rule="evenodd" d="M14.5 0.556187C9.57546 0.556187 5.58252 4.39687 5.58252 9.13475C5.58252 10.3582 5.85439 11.5218 6.33289 12.5749L14.6523 25.8442L22.6671 12.5749C23.1475 11.5218 23.4139 10.3564 23.4139 9.13475C23.4139 4.39687 19.4246 0.556187 14.5 0.556187ZM14.5 15.2193C11.4097 15.2193 8.90846 12.7054 8.90846 9.60419C8.90846 6.50662 11.4097 3.99087 14.5 3.99087C17.5867 3.99087 20.0934 6.50662 20.0934 9.60419C20.0934 12.7054 17.5867 15.2193 14.5 15.2193ZM18.0833 9.53169C18.0833 11.52 16.4775 13.1295 14.4982 13.1295C12.5208 13.1295 10.9149 11.5182 10.9149 9.53169C10.9149 7.547 12.5208 5.9375 14.4982 5.9375C16.4775 5.9375 18.0833 7.54881 18.0833 9.53169Z" fill="url(#paint0_linear_289_868)"/>
<path fill-rule="evenodd" clip-rule="evenodd" d="M9.60443 21.9296C6.49237 22.5894 5.20142 23.4553 5.20142 24.4286C5.20142 25.8224 8.51874 27.7437 14.4728 27.7437C20.4269 27.7437 23.7464 25.8224 23.7464 24.4286C23.7464 23.4589 22.4623 22.6184 19.3937 21.9296V20.4429C22.7741 21.1063 25.2916 22.4385 25.2916 24.4286C25.2916 27.2996 19.7164 29.4509 14.4728 29.4509C9.22924 29.4509 3.65399 27.2996 3.65399 24.4286C3.65399 22.4349 6.18787 21.0773 9.5863 20.4375L9.60443 21.9296Z" fill="url(#paint1_linear_289_868)"/>
</g>
<defs>
<linearGradient id="paint0_linear_289_868" x1="5.58252" y1="13.3141" x2="23.4139" y2="13.3141" gradientUnits="userSpaceOnUse">
<stop stop-color="#495B8C"/>
<stop offset="1" stop-color="#718CD9"/>
</linearGradient>
<linearGradient id="paint1_linear_289_868" x1="3.65399" y1="24.9848" x2="25.2916" y2="24.9848" gradientUnits="userSpaceOnUse">
<stop stop-color="#495B8C"/>
<stop offset="1" stop-color="#718CD9"/>
</linearGradient>
<clipPath id="clip0_289_868">
<rect width="29" height="29" fill="white" transform="translate(0 0.5)"/>
</clipPath>
</defs>
</svg>
