<svg width="30" height="29" viewBox="0 0 30 29" fill="none" xmlns="http://www.w3.org/2000/svg">
<path id="Icon/Pregunta" d="M1.116 17.5656C0.651 17.8776 0.434 18.408 0.558 18.9384C0.682 19.4688 1.085 19.8432 1.643 19.9368C2.015 19.9992 2.387 20.0304 2.759 20.0304C3.875 20.0304 4.898 19.812 5.828 19.344C7.564 20.2488 9.548 20.7168 11.594 20.7168C17.98 20.7168 23.188 16.068 23.188 10.3584C23.188 4.6488 17.98 0 11.594 0C5.208 0 0 4.6488 0 10.3584C0 12.5424 0.775 14.664 2.17 16.4112C1.922 16.8792 1.55 17.2848 1.116 17.5656ZM1.984 10.3584C1.984 5.7408 6.293 1.9968 11.594 1.9968C16.895 1.9968 21.204 5.7408 21.204 10.3584C21.204 14.976 16.895 18.72 11.594 18.72C9.703 18.72 7.905 18.252 6.324 17.3472L5.828 17.0664L5.332 17.3784C4.805 17.6904 4.216 17.9088 3.565 18.0024C3.875 17.5968 4.092 17.1288 4.278 16.6296L4.495 16.068L4.061 15.5688C2.697 14.0712 1.984 12.2616 1.984 10.3584ZM8.463 8.0184C8.525 7.3008 8.773 6.7392 9.269 6.3648C9.827 5.928 10.571 5.7096 11.501 5.7096C12.493 5.7096 13.268 5.9592 13.826 6.4584C14.384 6.9576 14.663 7.644 14.663 8.4864C14.663 9.0168 14.508 9.4848 14.198 9.9216C13.888 10.3584 13.485 10.7016 13.02 10.9512C12.741 11.1384 12.586 11.3256 12.493 11.5128C12.431 11.6688 12.4 11.8248 12.369 12.0432C12.369 12.1992 12.214 12.324 12.059 12.324H10.602C10.416 12.324 10.261 12.168 10.261 11.9808C10.292 11.5752 10.385 11.2632 10.571 11.0136C10.788 10.7328 11.16 10.3896 11.687 10.0152C11.966 9.828 12.183 9.6096 12.338 9.36C12.493 9.1104 12.586 8.7984 12.586 8.4552C12.586 8.112 12.493 7.8312 12.307 7.6128C12.121 7.3944 11.842 7.3008 11.501 7.3008C11.222 7.3008 10.974 7.3944 10.788 7.5504C10.664 7.644 10.602 7.8 10.54 7.956C10.478 8.1744 10.292 8.2992 10.075 8.2992L8.742 8.268C8.587 8.3304 8.463 8.2056 8.463 8.0184ZM12.369 13.7592V14.5392C12.369 14.7888 12.152 15.0072 11.904 15.0072H10.726C10.478 15.0072 10.261 14.7888 10.261 14.5392V13.7592C10.261 13.5096 10.478 13.2912 10.726 13.2912H11.904C12.152 13.2912 12.369 13.5096 12.369 13.7592ZM29.202 20.1552C29.202 22.2144 28.396 24.0864 27.032 25.584C27.28 26.2704 27.745 27.0504 28.582 27.5808C28.799 27.7056 28.737 28.0488 28.489 28.08C27.621 28.2048 26.133 28.236 24.769 27.3936C23.25 28.2672 21.421 28.7664 19.468 28.7664C15.066 28.7664 11.377 26.208 10.137 22.6824C10.602 22.7136 11.036 22.7448 11.501 22.7448C18.073 22.7448 23.591 18.564 24.955 13.0104C27.528 14.5704 29.202 17.1912 29.202 20.1552Z" fill="url(#paint0_linear_289_830)"/>
<defs>
<linearGradient id="paint0_linear_289_830" x1="-1.40053e-07" y1="14.5128" x2="29.202" y2="14.5128" gradientUnits="userSpaceOnUse">
<stop stop-color="#495B8C"/>
<stop offset="1" stop-color="#718CD9"/>
</linearGradient>
</defs>
</svg>
