<svg width="22" height="18" viewBox="0 0 22 18" fill="none" xmlns="http://www.w3.org/2000/svg">
<path d="M2.2 4.5L11 10.125L19.8 4.5V2.25L11 7.875L2.2 2.25M2.2 0H19.8C21.021 0 22 1.00125 22 2.25V15.75C22 16.3467 21.7682 16.919 21.3556 17.341C20.9431 17.7629 20.3835 18 19.8 18H2.2C1.61652 18 1.05695 17.7629 0.644365 17.341C0.231785 16.919 0 16.3467 0 15.75V2.25C0 1.65326 0.231785 1.08097 0.644365 0.65901C1.05695 0.237053 1.61652 0 2.2 0Z" fill="url(#paint0_linear_289_874)"/>
<defs>
<linearGradient id="paint0_linear_289_874" x1="22" y1="9.08108" x2="1.05512e-07" y2="9.08108" gradientUnits="userSpaceOnUse">
<stop stop-color="#495B8C"/>
<stop offset="1" stop-color="#718CD9"/>
</linearGradient>
</defs>
</svg>
