<svg width="40" height="40" viewBox="0 0 40 40" fill="none" xmlns="http://www.w3.org/2000/svg">
<g id="Icons/Servicios/OnlineMeetings" clip-path="url(#clip0_688_785)">
<path id="Vector" d="M17.9297 36.7383C17.7995 37.2331 17.7018 37.7344 17.6367 38.2422C17.5716 38.75 17.526 39.2708 17.5 39.8047C15.8333 39.6094 14.2448 39.2188 12.7344 38.6328C11.224 38.0469 9.82422 37.2982 8.53516 36.3867C7.24609 35.4753 6.07422 34.4206 5.01953 33.2227C3.96484 32.0247 3.06641 30.7227 2.32422 29.3164C1.58203 27.9102 1.00911 26.4258 0.605469 24.8633C0.201823 23.3008 0 21.6797 0 20C0 18.1641 0.234375 16.3932 0.703125 14.6875C1.17188 12.9818 1.84245 11.3867 2.71484 9.90234C3.58724 8.41797 4.62891 7.07031 5.83984 5.85938C7.05078 4.64844 8.40495 3.60677 9.90234 2.73438C11.3997 1.86198 12.9883 1.19141 14.668 0.722656C16.3477 0.253906 18.125 0.0130208 20 0C21.8359 0 23.6003 0.234375 25.293 0.703125C26.9857 1.17188 28.5807 1.84896 30.0781 2.73438C31.5755 3.61979 32.9232 4.66146 34.1211 5.85938C35.319 7.05729 36.3672 8.41146 37.2656 9.92188C38.1641 11.4323 38.8346 13.0208 39.2773 14.6875C39.7201 16.3542 39.9609 18.125 40 20H38.6133C38.431 19.7005 38.2422 19.4076 38.0469 19.1211C37.8516 18.8346 37.6237 18.5612 37.3633 18.3008C37.2852 17.168 37.0833 16.0677 36.7578 15H12.832C12.7279 15.8333 12.6497 16.6602 12.5977 17.4805C12.5456 18.3008 12.513 19.1406 12.5 20C12.5 20.8464 12.526 21.6797 12.5781 22.5C12.6302 23.3203 12.7148 24.1536 12.832 25H20C20 25.4167 20.0326 25.8333 20.0977 26.25C20.1628 26.6667 20.2474 27.0833 20.3516 27.5H13.2617C13.418 28.2422 13.6263 29.056 13.8867 29.9414C14.1471 30.8268 14.4727 31.6927 14.8633 32.5391C15.2539 33.3854 15.7031 34.1797 16.2109 34.9219C16.7188 35.6641 17.2917 36.2695 17.9297 36.7383ZM35.8008 12.5C35.293 11.4453 34.694 10.4557 34.0039 9.53125C33.3138 8.60677 32.5326 7.76042 31.6602 6.99219C30.7878 6.22396 29.8633 5.54036 28.8867 4.94141C27.9102 4.34245 26.8555 3.85417 25.7227 3.47656C26.1914 4.1276 26.6081 4.81771 26.9727 5.54688C27.3372 6.27604 27.6693 7.02474 27.9688 7.79297C28.2682 8.5612 28.5221 9.34245 28.7305 10.1367C28.9388 10.931 29.1211 11.7188 29.2773 12.5H35.8008ZM20 2.5C19.349 2.5 18.75 2.67578 18.2031 3.02734C17.6562 3.37891 17.1484 3.84115 16.6797 4.41406C16.2109 4.98698 15.7943 5.63151 15.4297 6.34766C15.0651 7.0638 14.7331 7.79948 14.4336 8.55469C14.1341 9.3099 13.8932 10.026 13.7109 10.7031C13.5286 11.3802 13.3789 11.9792 13.2617 12.5H26.7383C26.6341 11.9922 26.4844 11.3932 26.2891 10.7031C26.0938 10.013 25.8529 9.29688 25.5664 8.55469C25.2799 7.8125 24.9544 7.08333 24.5898 6.36719C24.2253 5.65104 23.8086 5 23.3398 4.41406C22.8711 3.82812 22.3568 3.36589 21.7969 3.02734C21.237 2.6888 20.638 2.51302 20 2.5ZM14.2969 3.45703C13.1901 3.83464 12.1354 4.31641 11.1328 4.90234C10.1302 5.48828 9.19922 6.17188 8.33984 6.95312C7.48047 7.73438 6.69922 8.58724 5.99609 9.51172C5.29297 10.4362 4.69401 11.4323 4.19922 12.5H10.7227C10.8659 11.7839 11.0417 11.0221 11.25 10.2148C11.4583 9.40755 11.7188 8.60026 12.0312 7.79297C12.3438 6.98568 12.6823 6.21094 13.0469 5.46875C13.4115 4.72656 13.8281 4.05599 14.2969 3.45703ZM2.5 20C2.5 21.7318 2.74089 23.3984 3.22266 25H10.3125C10.2083 24.1667 10.1302 23.3398 10.0781 22.5195C10.026 21.6992 10 20.8594 10 20C10 19.1536 10.026 18.3203 10.0781 17.5C10.1302 16.6797 10.2083 15.8464 10.3125 15H3.22266C2.74089 16.6016 2.5 18.2682 2.5 20ZM4.16016 27.5C4.66797 28.5547 5.26693 29.5443 5.95703 30.4688C6.64714 31.3932 7.42839 32.2461 8.30078 33.0273C9.17318 33.8086 10.1107 34.4857 11.1133 35.0586C12.1159 35.6315 13.1706 36.1198 14.2773 36.5234C13.8086 35.8724 13.3919 35.1823 13.0273 34.4531C12.6628 33.724 12.3307 32.9753 12.0312 32.207C11.7318 31.4388 11.4779 30.6576 11.2695 29.8633C11.0612 29.069 10.8724 28.2812 10.7031 27.5H4.16016ZM34.4141 31.0352C35.2604 31.4648 36.0286 31.9922 36.7188 32.6172C37.4089 33.2422 37.9948 33.9453 38.4766 34.7266C38.9583 35.5078 39.3359 36.3411 39.6094 37.2266C39.8828 38.112 40.013 39.0365 40 40H37.5C37.5 38.9714 37.3047 38.0013 36.9141 37.0898C36.5234 36.1784 35.9896 35.3841 35.3125 34.707C34.6354 34.0299 33.8346 33.4896 32.9102 33.0859C31.9857 32.6823 31.0156 32.487 30 32.5C28.9583 32.5 27.9883 32.6953 27.0898 33.0859C26.1914 33.4766 25.3971 34.0104 24.707 34.6875C24.0169 35.3646 23.4766 36.1654 23.0859 37.0898C22.6953 38.0143 22.5 38.9844 22.5 40H20C20 39.0495 20.1302 38.1315 20.3906 37.2461C20.651 36.3607 21.0221 35.5208 21.5039 34.7266C21.9857 33.9323 22.5716 33.2292 23.2617 32.6172C23.9518 32.0052 24.7201 31.4779 25.5664 31.0352C24.5898 30.332 23.8346 29.4531 23.3008 28.3984C22.7669 27.3438 22.5 26.2109 22.5 25C22.5 23.9714 22.6953 23.0013 23.0859 22.0898C23.4766 21.1784 24.0104 20.3841 24.6875 19.707C25.3646 19.0299 26.1589 18.4896 27.0703 18.0859C27.9818 17.6823 28.9583 17.487 30 17.5C31.0286 17.5 31.9987 17.6953 32.9102 18.0859C33.8216 18.4766 34.6159 19.0104 35.293 19.6875C35.9701 20.3646 36.5104 21.1654 36.9141 22.0898C37.3177 23.0143 37.513 23.9844 37.5 25C37.5 26.1979 37.2331 27.3242 36.6992 28.3789C36.1654 29.4336 35.4036 30.319 34.4141 31.0352ZM30 30C30.6901 30 31.3346 29.8698 31.9336 29.6094C32.5326 29.349 33.0664 28.9909 33.5352 28.5352C34.0039 28.0794 34.362 27.5521 34.6094 26.9531C34.8568 26.3542 34.987 25.7031 35 25C35 24.3099 34.8698 23.6654 34.6094 23.0664C34.349 22.4674 33.9909 21.9336 33.5352 21.4648C33.0794 20.9961 32.5521 20.638 31.9531 20.3906C31.3542 20.1432 30.7031 20.013 30 20C29.3099 20 28.6654 20.1302 28.0664 20.3906C27.4674 20.651 26.9336 21.0091 26.4648 21.4648C25.9961 21.9206 25.638 22.4479 25.3906 23.0469C25.1432 23.6458 25.013 24.2969 25 25C25 25.6901 25.1302 26.3346 25.3906 26.9336C25.651 27.5326 26.0091 28.0664 26.4648 28.5352C26.9206 29.0039 27.4479 29.362 28.0469 29.6094C28.6458 29.8568 29.2969 29.987 30 30Z" fill="url(#paint0_linear_688_785)"/>
</g>
<defs>
<linearGradient id="paint0_linear_688_785" x1="-1.91844e-07" y1="20.1802" x2="40.0009" y2="20.1802" gradientUnits="userSpaceOnUse">
<stop stop-color="#495B8C"/>
<stop offset="1" stop-color="#718CD9"/>
</linearGradient>
<clipPath id="clip0_688_785">
<rect width="40" height="40" fill="white"/>
</clipPath>
</defs>
</svg>
